<?xml version="1.0" encoding="UTF-8" standalone="no"?>
<!-- Created with Inkscape (http://www.inkscape.org/) -->

<svg
   version="1.1"
   id="svg1"
   width="1875.0881"
   height="1874.928"
   viewBox="0 0 1875.0881 1874.928"
   xmlns="http://www.w3.org/2000/svg"
   xmlns:svg="http://www.w3.org/2000/svg">
  <defs
     id="defs1" />
  <g
     id="g1"
     transform="translate(2656.1348,-0.03595328)">
    <rect
       style="fill:#ffffff;fill-opacity:1;stroke-width:94.849;stroke-opacity:0.993974"
       id="rect1"
       width="1599.767"
       height="1665.5416"
       x="-2518.4741"
       y="104.72916"
       ry="137.93001" />
    <path
       style="fill:#012e6f;fill-opacity:1"
       d="m -2488.0925,1873.9422 c -55.5593,-5.6943 -105.3337,-35.5525 -136.4675,-81.8631 -7.6206,-11.3355 -17.7112,-32.0595 -21.9107,-45 -4.0823,-12.5798 -7.1993,-27.7571 -8.5959,-41.856 -1.413,-14.2635 -1.4299,-1520.78385 -0.017,-1535.28801 4.4804,-46.00237 24.5576,-87.509616 57.3377,-118.538689 30.5677,-28.934824 68.4669,-46.0275814 111.5097,-50.2913934 14.3492,-1.421435 1520.39242,-1.427364 1535.38062,-0.006 45.7492,4.338353 87.3449,24.4701924 118.4461,57.3264774 28.9349,30.567648 46.0276,68.466925 50.2914,111.509655 1.4286,14.4212 1.4286,1520.86676 0,1535.28796 -6.5913,66.539 -45.2113,122.4025 -104.3511,150.9428 -20.5343,9.9097 -40.8987,15.5599 -64.479,17.8899 -12.9869,1.2833 -1524.60452,1.1715 -1537.14402,-0.1136 z m 788.5544,-152.2412 c 177.144,-68.9239 360.2826,-112.6382 532.4456,-127.0921 49.3152,-4.1402 65.6032,-4.7707 133.5,-5.1674 l 68.00002,-0.3973 0.2611,-41.6347 0.2611,-41.6348 -30.7611,0.6866 c -116.92892,2.6097 -218.98282,11.779 -319.26112,28.6848 -145.3779,24.509 -278.3892,64.8385 -389.8772,118.212 l -13.3773,6.4042 -19.6227,-9.2048 c -171.2733,-80.3424 -381.2907,-128.1973 -618.6228,-140.9605 -30.7539,-1.6539 -85.3046,-3.4996 -103.761,-3.5108 l -11.7609,-0.01 0.2609,41.4825 0.261,41.4826 68,0.3973 c 79.8536,0.4666 111.057,2.161 179,9.7199 107.2056,11.9271 215.2383,34.2381 326.7286,67.4764 48.0848,14.3354 119.1098,38.8272 163.2714,56.3016 8.25,3.2644 15.2457,5.9813 15.5459,6.0375 0.3002,0.056 9.0791,-3.2179 19.5085,-7.2759 z m -288.1903,-259.2615 c 0.3497,-2.5517 0.6437,-7.6142 0.6532,-11.25 0.023,-8.7884 1.5222,-22.8201 4.0717,-38.1104 12.7915,-76.7163 54.2915,-147.1375 115.411,-195.8407 4.95,-3.9445 11.025,-8.9169 13.5,-11.05 2.475,-2.133 8.55,-7.2321 13.5,-11.3313 11.256,-9.3212 34.0159,-32.8417 41.3946,-42.778 21.6907,-29.2089 36.8199,-67.5317 42.2417,-107 1.9001,-13.8313 1.6294,-45.82731 -0.5114,-60.44997 -2.1494,-14.68158 -7.2964,-35.06133 -12.1714,-48.19328 -8.3075,-22.378 -24.5942,-50.63343 -37.1712,-64.48733 -13.629,-15.01279 -26.4452,-27.60354 -35.7271,-35.09856 -5.4696,-4.41669 -10.6446,-8.80298 -11.5,-9.74731 -0.8553,-0.94432 -6.5052,-5.49843 -12.5552,-10.12023 -13.7276,-10.48698 -40.3633,-37.00092 -51.1371,-50.90328 -30.4539,-39.29741 -49.1839,-77.37791 -60.7439,-123.5 -4.6228,-18.44412 -8.619,-46.7112 -8.619,-60.96638 0,-3.43996 -0.2862,-8.34228 -0.6359,-10.89405 l -0.6359,-4.63957 h -35.0091 -35.009 l 0.5708,17.25 c 1.9792,59.81689 20.3049,120.74667 52.6627,175.09438 23.4649,39.41126 59.3998,79.31596 95.7367,106.31287 23.0888,17.15408 36.5728,30.07873 49.0633,47.02806 43.7886,59.42003 45.5452,141.92995 4.3337,203.56045 -12.9255,19.3296 -25.2874,31.8262 -50.4164,50.9655 -17.9009,13.6341 -30.4049,24.7311 -46.6611,41.4108 -40.2887,41.3382 -68.804,88.4752 -86.8872,143.6283 -11.1929,34.1375 -18.0742,73.6728 -18.1019,103.9996 l -0.011,11.75 h 34.8641 34.8641 z m 609.1658,-2.1104 c -0.2662,-3.7125 -0.7316,-11.8831 -1.0342,-18.1569 -1.5894,-32.9504 -10.4144,-73.7378 -23.1714,-107.0931 -19.899,-52.0295 -48.5498,-95.5198 -88.9501,-135.0209 -14.9631,-14.6301 -20.9959,-19.7762 -46.4833,-39.6517 -20.5037,-15.989 -33.5598,-30.036 -45.3832,-48.8274 -37.1511,-59.0458 -36.2079,-135.9445 2.3711,-193.31966 13.6377,-20.28225 24.7636,-31.50573 51.5528,-52.00493 25.9083,-19.82514 45.0198,-37.96192 64.4633,-61.17537 47.2802,-56.4477 77.0559,-126.97262 84.5062,-200.1567 0.8031,-7.88882 1.6039,-19.7433 1.7796,-26.3433 l 0.3193,-12 -35.25,-0.26279 -35.25,-0.2628 -0.015,2.2628 c -0.051,7.42412 -2.234,33.9195 -3.5648,43.26279 -6.7236,47.20195 -23.7996,91.80358 -50.5371,132 -18.3456,27.58025 -41.6153,53.09205 -66.0314,72.39348 -5.6932,4.50056 -12.3762,9.93443 -14.8512,12.07527 -2.475,2.14084 -8.55,7.25231 -13.5,11.35882 -8.5323,7.07841 -18.1764,16.64823 -32.2875,32.03899 -18.6517,20.34308 -38.171,59.70389 -45.6896,92.13344 -14.6306,63.10496 -3.0477,127.41736 32.5877,180.93876 10.1386,15.2274 32.6811,39.4262 48.823,52.4102 5.3852,4.3317 10.6691,8.7253 11.7421,9.7634 1.0729,1.0382 6.8607,5.7126 12.8617,10.3876 13.8994,10.8283 37.5362,34.3029 48.835,48.5 42.8659,53.8616 66.2565,114.4875 70.605,183 0.5585,8.8 1.0171,16.5625 1.0191,17.25 0,0.9765 7.7735,1.25 35.5105,1.25 h 35.507 z M -1760.423,617.67705 c 1.7295,-2.01068 2.3281,-3.92008 2.3211,-7.40367 -0.015,-7.42228 -3.9905,-13.03559 -19.8486,-28.02463 -14.9589,-14.13916 -21.972,-22.58374 -27.5778,-33.20684 -9.0948,-17.23508 -12.3054,-42.95933 -9.5432,-76.46277 1.349,-16.36122 4.0319,-30.47514 11.5006,-60.5 14.3505,-57.69088 15.1348,-66.54196 13.1586,-148.5 -0.5891,-24.42876 -0.5088,-34.42226 0.2852,-35.5 0.9238,-1.25399 2.0129,-0.51598 6.6407,4.5 14.8539,16.09986 23.4755,34.94051 28.1374,61.48811 1.2422,7.07375 1.6714,15.53555 1.6743,33.01189 0,20.42743 -0.4381,27.22631 -3.3765,52 -6.5726,55.41433 -4.0913,81.46704 10.0219,105.22308 5.1835,8.72501 14.8035,19.0529 22.2464,23.88319 7.6099,4.93869 17.6154,8.22001 25.3596,8.3167 8.0025,0.0999 10.5432,-2.1169 13.6146,-11.87905 1.9379,-6.15934 2.1641,-8.67647 1.8011,-20.04392 -0.2283,-7.15 -0.4061,-21.325 -0.3951,-31.5 0.03,-27.31261 1.7064,-32.33845 23.8726,-71.55013 5.8918,-10.42243 12.4204,-22.46393 14.5082,-26.75889 3.1534,-6.48743 3.9558,-7.50287 4.7411,-6 3.0518,5.84069 12.5852,38.40771 15.6311,53.3972 17.324,85.25549 10.2771,119.19661 -41.7973,201.31441 -3.105,4.89643 -5.6455,9.21418 -5.6455,9.59502 0,0.38083 0.9462,1.54966 2.1026,2.5974 2.9204,2.64593 18.674,3.20372 28.1687,0.99737 10.1957,-2.36922 14.3273,-4.96199 24.7287,-15.51815 19.9476,-20.24448 35.8806,-48.55987 43.4842,-77.27822 15.3482,-57.96912 8.1359,-141.9339 -16.5176,-192.29601 -5.7057,-11.65569 -21.7931,-36.51942 -31.035,-47.96582 -3.5374,-4.3812 -12.1436,-13.62115 -19.125,-20.53321 -11.2381,-11.1266 -13.7603,-13.09705 -21.9999,-17.18737 -16.6101,-8.2455 -23.5389,-9.67816 -26.3151,-5.44115 -1.41,2.15203 -1.4021,2.82563 0.086,7.25 0.9022,2.68265 2.0376,5.36921 2.5233,5.97014 1.878,2.32383 6.8212,15.64995 8.5677,23.09688 2.5283,10.78134 2.5127,36.30656 -0.03,48.31053 -3.3623,15.87519 -15.3853,47.411 -21.419,56.18055 -5.2901,7.68897 -15.9187,15.81945 -20.6799,15.81945 -2.2355,0 -2.0414,-26.24394 0.4073,-55.05373 2.8655,-33.71424 0.9206,-71.49372 -4.5162,-87.72905 -15.1839,-45.34157 -74.8288,-100.81546 -115.8004,-107.70225 -5.5635,-0.93514 -11.2488,0.29289 -14.6653,3.16769 -4.2347,3.56327 -4.0366,8.18879 0.6798,15.87617 7.3222,11.9345 8.2954,14.25008 13.2143,31.44117 8.1907,28.62599 10.1384,43.2298 10.1398,76.02986 10e-4,22.76761 -1.4763,36.31116 -6.9807,64.00025 -5.9592,29.97667 -10.7157,48.72425 -16.7139,65.87679 -6.4982,18.58224 -9.4926,30.75368 -12.2008,49.5931 -3.3739,23.47034 -4.2627,39.63761 -3.0586,55.63901 2.3089,30.68602 7.5834,47.13289 20.4801,63.86099 18.4131,23.88322 61.8526,49.84242 81.3942,48.64064 4.422,-0.27195 5.8483,-0.83195 7.75,-3.04273 z"
       id="path1" />
  </g>
</svg>
