<?xml version="1.0" encoding="UTF-8" standalone="no"?>
<!-- Created with Inkscape (http://www.inkscape.org/) -->

<svg
   version="1.1"
   id="svg1"
   width="1799.9999"
   height="1799.9999"
   viewBox="0 0 1799.9999 1799.9999"
   xmlns="http://www.w3.org/2000/svg"
   xmlns:svg="http://www.w3.org/2000/svg">
  <defs
     id="defs1" />
  <g
     id="g1"
     transform="translate(-699.99988,-700.15411)">
    <path
       style="fill:#012e6f;fill-opacity:1;stroke-width:0.959994"
       d="m 861.31289,2499.1733 c -53.33441,-5.4667 -101.11555,-34.1316 -131.00265,-78.5916 -7.31544,-10.8825 -17.00191,-30.7782 -21.0332,-43.2015 -3.91888,-12.0772 -6.91105,-26.6479 -8.25175,-40.1833 -1.35638,-13.6937 -1.37257,-1460.00877 -0.016,-1473.93331 4.30099,-44.16398 23.57421,-84.01246 55.04163,-113.80151 29.3435,-27.77849 65.72511,-44.18817 107.04416,-48.28159 13.77468,-1.36462 1459.50792,-1.37032 1473.89592,-0.006 43.9172,4.16497 83.8472,23.49228 113.7029,55.03552 27.7762,29.34609 44.1844,65.73076 48.2775,107.05337 1.3713,13.84489 1.3713,1460.08832 0,1473.93332 -6.3273,63.8797 -43.401,117.5109 -100.1724,144.9106 -19.712,9.5136 -39.2608,14.9381 -61.8968,17.1749 -12.4669,1.232 -1463.55145,1.1247 -1475.58871,-0.109 z m 756.97641,-146.1572 c 170.0503,-66.1695 345.855,-108.1367 511.1238,-122.013 47.3404,-3.9747 62.9761,-4.5801 128.1539,-4.961 l 65.277,-0.3813 0.2506,-39.9708 0.2506,-39.971 -29.5293,0.6591 c -112.2464,2.5054 -210.2135,11.3083 -306.4762,27.5385 -139.5561,23.5295 -267.2411,62.2473 -374.2646,113.4879 l -12.8415,6.1483 -18.837,-8.837 c -164.4146,-77.1317 -366.0217,-123.0742 -593.84967,-135.3273 -29.52234,-1.5878 -81.88854,-3.3597 -99.60585,-3.3705 l -11.28993,-0.01 0.25045,39.8247 0.25055,39.8248 65.27692,0.3814 c 76.65583,0.4479 106.60963,2.0746 171.83193,9.3314 102.9124,11.4505 206.6189,32.8698 313.6446,64.7799 46.1591,13.7625 114.3399,37.2755 156.7331,54.0516 7.9196,3.1339 14.6351,5.7423 14.9234,5.7961 0.2882,0.054 8.7155,-3.0891 18.7272,-6.9851 z m -276.6496,-248.9006 c 0.3358,-2.4495 0.618,-7.3098 0.6272,-10.8004 0.022,-8.4371 1.4611,-21.9081 3.9084,-36.5874 12.2794,-73.6504 52.1174,-141.2574 110.7895,-188.0143 4.7517,-3.7868 10.5835,-8.5604 12.9593,-10.6083 2.3759,-2.0477 8.2076,-6.9431 12.9594,-10.8785 10.8053,-8.9487 32.6538,-31.5293 39.7369,-41.0685 20.8221,-28.0416 35.3455,-64.8329 40.5501,-102.7239 1.8241,-13.2786 1.5642,-43.996 -0.4908,-58.0342 -2.0634,-14.095 -7.0043,-33.6603 -11.6841,-46.2673 -7.9748,-21.4839 -23.6093,-48.61 -35.6827,-61.9103 -13.0831,-14.4128 -25.3862,-26.5003 -34.2964,-33.6959 -5.2505,-4.2402 -10.2182,-8.4511 -11.0394,-9.3578 -0.8211,-0.9065 -6.2447,-5.2787 -12.0524,-9.7158 -13.1779,-10.068 -38.7469,-35.5221 -49.0894,-48.869 -29.2343,-37.727 -47.2143,-74.2857 -58.3112,-118.5646 -4.4378,-17.707 -8.2739,-44.8444 -8.2739,-58.53 0,-3.3025 -0.2747,-8.0089 -0.6105,-10.4587 l -0.6105,-4.4541 h -33.607 -33.6071 l 0.5478,16.5606 c 1.9,57.4264 19.492,115.9214 50.5539,168.0971 22.5253,37.8362 57.0211,76.1463 91.9029,102.0643 22.1642,16.4685 35.1082,28.8767 47.0986,45.1486 42.035,57.0454 43.7213,136.258 4.1601,195.4256 -12.4079,18.5572 -24.2749,30.5544 -48.3975,48.9288 -17.184,13.0893 -29.1872,23.7427 -44.7925,39.756 -38.6752,39.686 -66.0487,84.9394 -83.4077,137.8884 -10.7447,32.7732 -17.3505,70.7286 -17.377,99.8434 l -0.01,11.2804 h 33.4679 33.468 z m 584.7718,-2.0259 c -0.2557,-3.5642 -0.7024,-11.4083 -0.9931,-17.4313 -1.5255,-31.6336 -9.9972,-70.7911 -22.2433,-102.8133 -19.1021,-49.9503 -46.6056,-91.7026 -85.3882,-129.6252 -14.3637,-14.0454 -20.155,-18.9859 -44.6217,-38.0671 -19.6827,-15.35 -32.2159,-28.8356 -43.5659,-46.876 -35.6633,-56.6863 -34.7579,-130.5118 2.2761,-185.5941 13.0917,-19.4718 23.7721,-30.2466 49.4884,-49.9266 24.8709,-19.0329 43.217,-36.4449 61.8819,-58.7308 45.3868,-54.1918 73.9703,-121.8982 81.1222,-192.1577 0.7708,-7.5735 1.5396,-18.9543 1.7082,-25.2905 l 0.3065,-11.5204 -33.8383,-0.2524 -33.8385,-0.2523 -0.014,2.1724 c -0.049,7.1275 -2.1446,32.564 -3.4222,41.5338 -6.4543,45.3156 -22.8466,88.1349 -48.5133,126.7249 -17.6109,26.4782 -39.9488,50.9705 -63.3872,69.5004 -5.465,4.3208 -11.8805,9.5374 -14.2564,11.5928 -2.3759,2.0552 -8.2076,6.9625 -12.9594,10.9049 -8.1907,6.7955 -17.4486,15.9828 -30.9947,30.7586 -17.9047,19.5301 -36.6425,57.3179 -43.8599,88.4514 -14.0446,60.5831 -2.9256,122.3255 31.2828,173.7081 9.7325,14.6188 31.3725,37.8504 46.8678,50.3156 5.1696,4.1586 10.242,8.3767 11.2719,9.3732 1.0301,0.9967 6.586,5.4844 12.3467,9.9726 13.3428,10.3955 36.0331,32.932 46.8793,46.5618 41.1494,51.709 63.6034,109.9122 67.7777,175.6867 0.5361,8.4483 0.9764,15.9006 0.9783,16.5607 0,0.9374 7.4621,1.1999 34.0884,1.1999 h 34.0851 z m -366.5691,-808.9772 c 1.6604,-1.9304 2.235,-3.7634 2.2284,-7.1078 -0.015,-7.1256 -3.8308,-12.5147 -19.0538,-26.9047 -14.3599,-13.5741 -21.0921,-21.6812 -26.4735,-31.8798 -8.7307,-16.5463 -11.8127,-41.2425 -9.161,-73.407 1.295,-15.7075 3.8705,-29.2573 11.0399,-58.0823 13.776,-55.3854 14.5289,-63.8827 12.6318,-142.56546 -0.5656,-23.45251 -0.4884,-33.04665 0.2738,-34.08131 0.8867,-1.20387 1.9322,-0.49536 6.3747,4.32017 14.2591,15.45644 22.5355,33.54418 27.0107,59.03085 1.1925,6.79106 1.6045,14.9147 1.6072,31.69265 0,19.6111 -0.4205,26.1383 -3.2412,49.9219 -6.3095,53.1998 -3.9275,78.2113 9.6205,101.018 4.9758,8.3764 14.2107,18.2916 21.3555,22.9288 7.3051,4.7413 16.9101,7.8915 24.3441,7.9843 7.682,0.096 10.1211,-2.0322 13.0694,-11.4043 1.8603,-5.9132 2.0774,-8.3297 1.729,-19.2429 -0.2192,-6.8642 -0.3899,-20.4727 -0.3792,-30.2413 0.028,-26.2209 1.6379,-31.046 22.9166,-68.6906 5.6558,-10.006 11.9231,-21.5662 13.9273,-25.6895 3.0271,-6.2282 3.7973,-7.2031 4.5513,-5.7603 2.9295,5.6073 12.0812,36.8728 15.0051,51.2633 16.6303,81.8485 9.8654,114.4331 -40.1237,193.2693 -2.9807,4.7008 -5.4194,8.8459 -5.4194,9.2115 0,0.3656 0.9084,1.4877 2.0185,2.4936 2.8033,2.5402 17.9262,3.0757 27.0407,0.9575 9.7873,-2.2745 13.7536,-4.7636 23.7385,-14.8979 19.1488,-19.4355 34.4437,-46.6194 41.7428,-74.1899 14.7336,-55.6526 7.8101,-136.2619 -15.8562,-184.6113 -5.4771,-11.1899 -20.9203,-35.06005 -29.7922,-46.04901 -3.3957,-4.20612 -11.6573,-13.07681 -18.3591,-19.71265 -10.7882,-10.68193 -13.2094,-12.57363 -21.1191,-16.5005 -15.9448,-7.91598 -22.5961,-9.29139 -25.2612,-5.2237 -1.3536,2.06602 -1.3459,2.71271 0.083,6.96026 0.866,2.57544 1.9561,5.15464 2.4223,5.73156 1.8029,2.23096 6.5481,15.02453 8.2245,22.17385 2.4272,10.3505 2.4122,34.85559 -0.029,46.37989 -3.2276,15.2407 -14.7693,45.5163 -20.5612,53.9354 -5.0784,7.3817 -15.2812,15.1872 -19.8518,15.1872 -2.1459,0 -1.9596,-25.1951 0.391,-52.8535 2.7507,-32.36696 0.8838,-68.63665 -4.3353,-84.22318 -14.5758,-43.52957 -71.8323,-96.78655 -111.1632,-103.39814 -5.3406,-0.89776 -10.7984,0.2812 -14.0781,3.0411 -4.065,3.42088 -3.8749,7.86155 0.6527,15.24172 7.029,11.45756 7.9632,13.6806 12.6851,30.18468 7.8627,27.48201 9.7324,41.50221 9.7338,72.99147 0,21.85776 -1.4172,34.86006 -6.7012,61.44265 -5.7206,28.7787 -10.2866,46.7771 -16.0446,63.2441 -6.2379,17.8396 -9.1124,29.5246 -11.7121,47.6112 -3.2388,22.5324 -4.092,38.0536 -2.9362,53.4156 2.2165,29.4596 7.2797,45.2492 19.66,61.3089 17.6757,22.9287 59.3757,47.8505 78.1347,46.6967 4.2449,-0.261 5.6141,-0.7987 7.4396,-2.9211 z"
       id="path1" />
  </g>
</svg>
